<svg width="174" height="36" viewBox="0 0 174 36" fill="none" xmlns="http://www.w3.org/2000/svg" role="img" aria-label="D|VisUp">
  <path d="M27.88 31.5C31.085 31.5 33.738 28.879 33.145 25.73C32.773 23.756 32.21 21.82 31.462 19.953C29.996 16.294 27.848 12.969 25.14 10.168C22.431 7.367 19.216 5.145 15.678 3.629C13.931 2.881 12.122 2.312 10.277 1.928C7.14 1.274 4.516 3.93 4.516 7.133V25.7C4.516 28.904 7.113 31.5 10.316 31.5H27.88Z" fill="#615DFF"/>
  <g style="mix-blend-mode:multiply">
    <path d="M20.41 31.5C17.205 31.5 14.552 28.879 15.145 25.73C15.517 23.756 16.08 21.82 16.828 19.953C18.294 16.294 20.442 12.969 23.15 10.168C25.859 7.367 29.074 5.145 32.612 3.629C34.359 2.881 36.168 2.312 38.013 1.928C41.15 1.274 43.774 3.93 43.774 7.133V25.7C43.774 28.904 41.177 31.5 37.974 31.5H20.41Z" fill="#3DD9EB"/>
  </g>
  <text x="55" y="25.8" fill="#11142D" font-family="Inter, Be Vietnam Pro, Arial, sans-serif" font-size="25" font-weight="800" letter-spacing="-0.8">D|VisUp</text>
</svg>
